<svg width="20" height="18" viewBox="0 0 20 18" fill="none" xmlns="http://www.w3.org/2000/svg">
<path id="Vector - 0" fill-rule="evenodd" clip-rule="evenodd" d="M18.25 0.75H1.75C0.921573 0.75 0.25 1.42157 0.25 2.25V15.75C0.25 16.5784 0.921573 17.25 1.75 17.25H18.25C19.0784 17.25 19.75 16.5784 19.75 15.75V2.25C19.75 1.42157 19.0784 0.75 18.25 0.75ZM1.75 11.25H3.25C3.66421 11.25 4 10.9142 4 10.5C4 10.0858 3.66421 9.75 3.25 9.75H1.75V8.25H3.25C3.66421 8.25 4 7.91421 4 7.5C4 7.08579 3.66421 6.75 3.25 6.75H1.75V5.25H3.25C3.66421 5.25 4 4.91421 4 4.5C4 4.08579 3.66421 3.75 3.25 3.75H1.75V2.25H5.5V15.75H1.75V11.25ZM18.25 15.75H7V2.25H18.25V15.75Z" fill="#3CA3DC"/>
</svg>
