<svg width="21" height="21" viewBox="0 0 21 21" fill="none" xmlns="http://www.w3.org/2000/svg">
<path d="M3.13969 8.40032H8.55169C9.24052 8.39871 9.9071 8.15626 10.436 7.71496C10.9649 7.27366 11.3228 6.66129 11.4478 5.98388C11.5728 5.30648 11.4569 4.60671 11.1203 4.00573C10.7837 3.40475 10.2475 2.94041 9.60457 2.69312C9.2346 1.96696 8.64835 1.37355 7.92674 0.994799C7.20512 0.616047 6.38373 0.470631 5.57595 0.578623C4.76816 0.686616 4.01381 1.04269 3.41703 1.5977C2.82025 2.15271 2.41047 2.87928 2.24425 3.67712C1.72746 3.8967 1.30134 4.28647 1.03667 4.78168C0.772001 5.2769 0.684712 5.84776 0.789301 6.39943C0.89389 6.95111 1.18406 7.45041 1.61162 7.81439C2.03918 8.17837 2.57839 8.38513 3.13969 8.40032ZM3.13969 5.44832C3.40066 5.44832 3.65094 5.34465 3.83548 5.16011C4.02002 4.97558 4.12369 4.72529 4.12369 4.46432C4.12694 4.00014 4.29416 3.55204 4.59581 3.19922C4.89746 2.8464 5.31411 2.61156 5.77215 2.5362C6.23019 2.46084 6.70012 2.54982 7.0989 2.7874C7.49769 3.02499 7.79966 3.39589 7.95145 3.83456C8.00917 4.00182 8.11093 4.15041 8.246 4.26471C8.38107 4.379 8.54446 4.45476 8.71897 4.484C8.94665 4.52328 9.15326 4.64142 9.30258 4.81773C9.45191 4.99404 9.53443 5.21728 9.53569 5.44832C9.53569 5.70929 9.43202 5.95958 9.24748 6.14411C9.06294 6.32865 8.81266 6.43232 8.55169 6.43232H3.13969C3.0092 6.43232 2.88406 6.38048 2.79179 6.28822C2.69952 6.19595 2.64769 6.07081 2.64769 5.94032C2.64769 5.80983 2.69952 5.68469 2.79179 5.59242C2.88406 5.50016 3.0092 5.44832 3.13969 5.44832ZM17.4077 0.52832H12.4877C12.2267 0.52832 11.9764 0.631991 11.7919 0.816527C11.6074 1.00106 11.5037 1.25135 11.5037 1.51232C11.5037 1.77329 11.6074 2.02358 11.7919 2.20811C11.9764 2.39265 12.2267 2.49632 12.4877 2.49632H17.4077C17.6687 2.49632 17.9189 2.59999 18.1035 2.78453C18.288 2.96906 18.3917 3.21935 18.3917 3.48032V10.3683H1.66369C1.40271 10.3683 1.15243 10.472 0.967894 10.6565C0.783359 10.8411 0.679688 11.0913 0.679688 11.3523V13.3203C0.679688 14.1032 0.990701 14.8541 1.54431 15.4077C2.09792 15.9613 2.84877 16.2723 3.63169 16.2723H6.58369V18.2403H3.63169C3.37071 18.2403 3.12043 18.344 2.93589 18.5285C2.75136 18.7131 2.64769 18.9633 2.64769 19.2243C2.64769 19.4853 2.75136 19.7356 2.93589 19.9201C3.12043 20.1047 3.37071 20.2083 3.63169 20.2083H17.4077C17.6687 20.2083 17.9189 20.1047 18.1035 19.9201C18.288 19.7356 18.3917 19.4853 18.3917 19.2243C18.3917 18.9633 18.288 18.7131 18.1035 18.5285C17.9189 18.344 17.6687 18.2403 17.4077 18.2403H14.4557V16.2723H17.4077C18.1906 16.2723 18.9415 15.9613 19.4951 15.4077C20.0487 14.8541 20.3597 14.1032 20.3597 13.3203V3.48032C20.3597 2.6974 20.0487 1.94655 19.4951 1.39294C18.9415 0.839334 18.1906 0.52832 17.4077 0.52832ZM12.4877 18.2403H8.55169V16.2723H12.4877V18.2403ZM18.3917 13.3203C18.3917 13.5813 18.288 13.8316 18.1035 14.0161C17.9189 14.2006 17.6687 14.3043 17.4077 14.3043H3.63169C3.37071 14.3043 3.12043 14.2006 2.93589 14.0161C2.75136 13.8316 2.64769 13.5813 2.64769 13.3203V12.3363H18.3917V13.3203Z" fill="#3CA3DC"/>
</svg>
