<svg width="23" height="22" viewBox="0 0 23 22" fill="none" xmlns="http://www.w3.org/2000/svg">
<path d="M21.3749 0.119649H14.4869C13.9236 0.117341 13.3773 0.31321 12.9438 0.672982C12.5103 1.03275 12.2171 1.53352 12.1155 2.08765L11.2102 7.05685C11.1477 7.40306 11.1619 7.75879 11.2521 8.09886C11.3422 8.43894 11.5059 8.75506 11.7317 9.02485C11.9588 9.29477 12.2419 9.51204 12.5613 9.66157C12.8808 9.8111 13.2289 9.88931 13.5817 9.89077H16.4549L16.2089 10.5402C16.0273 11.0218 15.9642 11.5399 16.025 12.051C16.0858 12.562 16.2686 13.051 16.5581 13.4765C16.8476 13.902 17.2352 14.2516 17.6882 14.4959C18.1412 14.7401 18.6463 14.8717 19.1609 14.8796C19.3519 14.8812 19.5392 14.8271 19.6999 14.724C19.8607 14.6209 19.9879 14.4733 20.0662 14.2991L22.2704 9.32005C22.3206 9.21158 22.3506 9.09487 22.3589 8.97565V1.10365C22.3589 0.842676 22.2553 0.592392 22.0707 0.407856C21.8862 0.22332 21.6359 0.119649 21.3749 0.119649ZM20.3909 8.70997L18.5902 12.7739C18.4145 12.6783 18.263 12.5436 18.1474 12.3803C18.0316 12.2164 17.9584 12.0262 17.9344 11.827C17.9103 11.6277 17.9362 11.4256 18.0097 11.2388L18.3836 10.2548C18.4819 9.99965 18.5155 9.72403 18.4811 9.45269C18.4468 9.18135 18.3456 8.92277 18.1868 8.70013C18.0303 8.47834 17.8223 8.29795 17.5806 8.17452C17.3388 8.05109 17.0707 7.98833 16.7993 7.99165H13.562C13.4966 7.99183 13.432 7.97785 13.3725 7.95068C13.3131 7.9235 13.2602 7.88376 13.2176 7.83421C13.1412 7.72928 13.1094 7.59842 13.129 7.47013L14.0343 2.55013C14.0301 2.48914 14.0388 2.42795 14.0599 2.37058C14.081 2.31321 14.114 2.26096 14.1568 2.21727C14.1996 2.17358 14.2511 2.13945 14.308 2.1171C14.3649 2.09476 14.4259 2.08472 14.4869 2.08765H20.3909V8.70997ZM9.5079 11.9768H6.66414L6.91014 11.3274C7.08913 10.8431 7.14854 10.3226 7.08334 9.81041C7.01813 9.29817 6.83023 8.80925 6.53561 8.38518C6.24098 7.96111 5.84834 7.61444 5.39104 7.37461C4.93374 7.13478 4.42531 7.0089 3.90894 7.00765C3.71798 7.00614 3.53071 7.06023 3.36997 7.16331C3.20922 7.2664 3.08195 7.41403 3.00366 7.58821L0.799498 12.5672C0.74311 12.6909 0.712956 12.8249 0.710938 12.9608V20.8328C0.710938 21.0938 0.814609 21.3441 0.999144 21.5286C1.18368 21.7132 1.43396 21.8168 1.69494 21.8168H8.58294C9.1463 21.8192 9.69253 21.6233 10.1261 21.2635C10.5596 20.9037 10.8528 20.403 10.9544 19.8489L11.8597 14.9288C11.9222 14.5826 11.9079 14.2269 11.8178 13.8868C11.7277 13.5468 11.5639 13.2306 11.3381 12.9608C11.1248 12.6717 10.85 12.4335 10.5335 12.2634C10.217 12.0932 9.86674 11.9954 9.5079 11.9768ZM9.03558 19.4356C9.01868 19.5416 8.96301 19.6375 8.87938 19.7048C8.79574 19.7721 8.69009 19.8059 8.58294 19.7997H2.67894V13.1773L4.47966 9.11341C4.6554 9.20904 4.80689 9.34369 4.92246 9.50701C5.03826 9.67093 5.11148 9.86107 5.13553 10.0603C5.15957 10.2596 5.13369 10.4617 5.06022 10.6484L4.6863 11.6324C4.58793 11.8877 4.55442 12.1633 4.58876 12.4346C4.62311 12.7059 4.72424 12.9645 4.8831 13.1872C5.03734 13.4126 5.24443 13.5968 5.48629 13.7237C5.72814 13.8507 5.9974 13.9165 6.27054 13.9153H9.5079C9.57327 13.9151 9.6379 13.9291 9.69735 13.9563C9.75681 13.9835 9.80967 14.0232 9.8523 14.0728C9.92868 14.1777 9.96052 14.3086 9.94086 14.4368L9.03558 19.4356Z" fill="#3CA3DC"/>
</svg>
