<svg width="20" height="20" viewBox="0 0 20 20" fill="none" xmlns="http://www.w3.org/2000/svg">
<path id="Vector - 0" fill-rule="evenodd" clip-rule="evenodd" d="M10 0.25C4.61522 0.25 0.25 4.61522 0.25 10C0.25 15.3848 4.61522 19.75 10 19.75C15.3848 19.75 19.75 15.3848 19.75 10C19.7443 4.61758 15.3824 0.255684 10 0.25ZM10 18.25C5.44365 18.25 1.75 14.5563 1.75 10C1.75 5.44365 5.44365 1.75 10 1.75C14.5563 1.75 18.25 5.44365 18.25 10C18.2448 14.5542 14.5542 18.2448 10 18.25ZM11.125 10C11.125 10.6213 10.6213 11.125 10 11.125C9.37868 11.125 8.875 10.6213 8.875 10C8.875 9.37868 9.37868 8.875 10 8.875C10.6213 8.875 11.125 9.37868 11.125 10ZM15.25 10C15.25 10.6213 14.7463 11.125 14.125 11.125C13.5037 11.125 13 10.6213 13 10C13 9.37868 13.5037 8.875 14.125 8.875C14.7463 8.875 15.25 9.37868 15.25 10ZM7 10C7 10.6213 6.49632 11.125 5.875 11.125C5.25368 11.125 4.75 10.6213 4.75 10C4.75 9.37868 5.25368 8.875 5.875 8.875C6.49632 8.875 7 9.37868 7 10Z" fill="#3CA3DC"/>
</svg>
