<svg width="20" height="21" viewBox="0 0 20 21" fill="none" xmlns="http://www.w3.org/2000/svg">
<path d="M6.61494 1.38037H2.67894C1.59204 1.38037 0.710938 2.26147 0.710938 3.34837V7.28437C0.710938 8.37127 1.59204 9.25237 2.67894 9.25237H6.61494C7.70183 9.25237 8.58294 8.37127 8.58294 7.28437V3.34837C8.58294 2.26147 7.70183 1.38037 6.61494 1.38037Z" stroke="#3CA3DC" stroke-width="0.984"/>
<path d="M17.4392 1.38037H13.5032C12.4163 1.38037 11.5352 2.26147 11.5352 3.34837V7.28437C11.5352 8.37127 12.4163 9.25237 13.5032 9.25237H17.4392C18.5261 9.25237 19.4072 8.37127 19.4072 7.28437V3.34837C19.4072 2.26147 18.5261 1.38037 17.4392 1.38037Z" stroke="#3CA3DC" stroke-width="0.984"/>
<path d="M6.61494 12.2046H2.67894C1.59204 12.2046 0.710938 13.0857 0.710938 14.1726V18.1086C0.710938 19.1955 1.59204 20.0766 2.67894 20.0766H6.61494C7.70183 20.0766 8.58294 19.1955 8.58294 18.1086V14.1726C8.58294 13.0857 7.70183 12.2046 6.61494 12.2046Z" stroke="#3CA3DC" stroke-width="0.984"/>
<path d="M17.4392 12.2046H13.5032C12.4163 12.2046 11.5352 13.0857 11.5352 14.1726V18.1086C11.5352 19.1955 12.4163 20.0766 13.5032 20.0766H17.4392C18.5261 20.0766 19.4072 19.1955 19.4072 18.1086V14.1726C19.4072 13.0857 18.5261 12.2046 17.4392 12.2046Z" stroke="#3CA3DC" stroke-width="0.984"/>
</svg>
