<svg width="18" height="20" viewBox="0 0 18 20" fill="none" xmlns="http://www.w3.org/2000/svg">
<path id="Vector - 0" fill-rule="evenodd" clip-rule="evenodd" d="M4.04906 16.6C4.20825 16.7196 4.40849 16.7711 4.60564 16.7429C4.80278 16.7148 4.98064 16.6094 5.1 16.45C6.02067 15.2224 7.46556 14.5 9 14.5C10.5344 14.5 11.9793 15.2224 12.9 16.45C13.1485 16.7814 13.6186 16.8485 13.95 16.6C14.2814 16.3515 14.3485 15.8814 14.1 15.55C13.4359 14.6596 12.5503 13.9586 11.5312 13.5166C12.6743 12.473 13.0587 10.8343 12.4991 9.39121C11.9394 7.94813 10.5506 6.99718 9.00281 6.99718C7.45501 6.99718 6.06622 7.94813 5.50655 9.39121C4.94688 10.8343 5.33131 12.473 6.47437 13.5166C5.45328 13.9577 4.56567 14.6588 3.9 15.55C3.65127 15.8811 3.718 16.3512 4.04906 16.6ZM9 8.5C10.2426 8.5 11.25 9.50736 11.25 10.75C11.25 11.9926 10.2426 13 9 13C7.75736 13 6.75 11.9926 6.75 10.75C6.75 9.50736 7.75736 8.5 9 8.5ZM15.75 0.25H2.25C1.42157 0.25 0.75 0.921573 0.75 1.75V18.25C0.75 19.0784 1.42157 19.75 2.25 19.75H15.75C16.5784 19.75 17.25 19.0784 17.25 18.25V1.75C17.25 0.921573 16.5784 0.25 15.75 0.25ZM15.75 18.25H2.25V1.75H15.75V18.25ZM5.25 4C5.25 3.58579 5.58579 3.25 6 3.25H12C12.4142 3.25 12.75 3.58579 12.75 4C12.75 4.41421 12.4142 4.75 12 4.75H6C5.58579 4.75 5.25 4.41421 5.25 4Z" fill="#3CA3DC"/>
</svg>
