<svg width="25" height="26" viewBox="0 0 25 26" fill="none" xmlns="http://www.w3.org/2000/svg">
<g id="Food">
<path id="Vector" d="M12.5 5.57812C11.0321 5.57813 9.59715 6.01341 8.37663 6.82894C7.15611 7.64446 6.20483 8.8036 5.64308 10.1598C5.08134 11.5159 4.93436 13.0082 5.22074 14.4479C5.50711 15.8876 6.21398 17.2101 7.25195 18.2481C8.28991 19.286 9.61236 19.9929 11.0521 20.2793C12.4918 20.5656 13.9841 20.4187 15.3402 19.8569C16.6964 19.2952 17.8555 18.3439 18.6711 17.1234C19.4866 15.9029 19.9219 14.4679 19.9219 13C19.9197 11.0323 19.1371 9.14574 17.7457 7.75434C16.3543 6.36294 14.4677 5.5803 12.5 5.57812ZM12.5 19.6406C11.1866 19.6406 9.90271 19.2512 8.81067 18.5215C7.71862 17.7918 6.86748 16.7547 6.36487 15.5413C5.86225 14.3278 5.73075 12.9926 5.98698 11.7045C6.24321 10.4163 6.87566 9.23308 7.80437 8.30437C8.73308 7.37566 9.91633 6.7432 11.2045 6.48697C12.4926 6.23074 13.8278 6.36225 15.0413 6.86486C16.2547 7.36748 17.2918 8.21862 18.0215 9.31067C18.7512 10.4027 19.1406 11.6866 19.1406 13C19.1387 14.7606 18.4384 16.4485 17.1935 17.6935C15.9485 18.9384 14.2606 19.6387 12.5 19.6406Z" fill="#3CA3DC"/>
<path id="Vector_2" d="M5.07812 8.70312V4.79688H4.29688V8.3125H3.90625V4.79688H3.125V8.3125H2.73438V4.79688H1.95312V8.3125H1.5625V4.79688H0.78125V10.6562C0.781546 10.8985 0.856788 11.1348 0.996658 11.3327C1.13653 11.5305 1.33418 11.6802 1.5625 11.7613V20.8125C1.5625 21.1233 1.68597 21.4214 1.90573 21.6411C2.1255 21.8609 2.42357 21.9844 2.73438 21.9844H3.125C3.4358 21.9844 3.73387 21.8609 3.95364 21.6411C4.17341 21.4214 4.29688 21.1233 4.29688 20.8125V11.7613C4.5252 11.6802 4.72285 11.5305 4.86272 11.3327C5.00259 11.1348 5.07783 10.8985 5.07812 10.6562V8.70312ZM4.29688 10.6562C4.29688 10.7599 4.25572 10.8592 4.18246 10.9325C4.10921 11.0057 4.00985 11.0469 3.90625 11.0469C3.80265 11.0469 3.70329 11.088 3.63004 11.1613C3.55678 11.2345 3.51562 11.3339 3.51562 11.4375V20.8125C3.51562 20.9161 3.47447 21.0155 3.40121 21.0887C3.32796 21.162 3.2286 21.2031 3.125 21.2031H2.73438C2.63077 21.2031 2.53142 21.162 2.45816 21.0887C2.38491 21.0155 2.34375 20.9161 2.34375 20.8125V11.4375C2.34375 11.3339 2.30259 11.2345 2.22934 11.1613C2.15608 11.088 2.05673 11.0469 1.95312 11.0469C1.84952 11.0469 1.75017 11.0057 1.67691 10.9325C1.60366 10.8592 1.5625 10.7599 1.5625 10.6562V9.09375H4.29688V10.6562ZM23.8281 4.40625C22.896 4.40728 22.0024 4.77801 21.3433 5.43709C20.6843 6.09618 20.3135 6.98979 20.3125 7.92188V13C20.3125 13.3108 20.436 13.6089 20.6557 13.8286C20.8755 14.0484 21.1736 14.1719 21.4844 14.1719V21.5938C21.4844 21.6973 21.5255 21.7967 21.5988 21.87C21.672 21.9432 21.7714 21.9844 21.875 21.9844H23.8281C23.9317 21.9844 24.0311 21.9432 24.1043 21.87C24.1776 21.7967 24.2188 21.6973 24.2188 21.5938V4.79688C24.2188 4.69327 24.1776 4.59392 24.1043 4.52066C24.0311 4.44741 23.9317 4.40625 23.8281 4.40625ZM23.4375 21.2031H22.2656V13.7812C22.2656 13.6776 22.2245 13.5783 22.1512 13.505C22.078 13.4318 21.9786 13.3906 21.875 13.3906H21.4844C21.3808 13.3906 21.2814 13.3495 21.2082 13.2762C21.1349 13.203 21.0938 13.1036 21.0938 13V7.92188C21.0946 7.26455 21.3318 6.62944 21.7621 6.13252C22.1924 5.6356 22.787 5.31002 23.4375 5.21523V21.2031Z" fill="#3CA3DC"/>
<path id="Vector_3" d="M22.2656 6.75H21.4844V12.6094H22.2656V6.75Z" fill="#3CA3DC"/>
<path id="Vector_4" d="M12.5 9.09375C11.7274 9.09375 10.9722 9.32285 10.3298 9.75207C9.68743 10.1813 9.18675 10.7914 8.8911 11.5051C8.59544 12.2189 8.51809 13.0043 8.66881 13.7621C8.81953 14.5198 9.19157 15.2158 9.73787 15.7621C10.2842 16.3084 10.9802 16.6805 11.7379 16.8312C12.4957 16.9819 13.2811 16.9046 13.9949 16.6089C14.7086 16.3133 15.3187 15.8126 15.7479 15.1702C16.1772 14.5278 16.4063 13.7726 16.4063 13C16.4051 11.9643 15.9932 10.9714 15.2609 10.2391C14.5286 9.5068 13.5357 9.09489 12.5 9.09375ZM12.5 16.125C11.8819 16.125 11.2777 15.9417 10.7638 15.5983C10.2499 15.255 9.8494 14.7669 9.61288 14.1959C9.37635 13.6249 9.31447 12.9965 9.43505 12.3903C9.55563 11.7842 9.85325 11.2273 10.2903 10.7903C10.7273 10.3533 11.2842 10.0556 11.8903 9.93505C12.4965 9.81447 13.1249 9.87635 13.6959 10.1129C14.2669 10.3494 14.755 10.7499 15.0983 11.2638C15.4417 11.7777 15.625 12.3819 15.625 13C15.6241 13.8285 15.2945 14.6228 14.7087 15.2087C14.1228 15.7945 13.3285 16.1241 12.5 16.125Z" fill="#3CA3DC"/>
</g>
</svg>
