<svg width="19" height="22" viewBox="0 0 19 22" fill="none" xmlns="http://www.w3.org/2000/svg">
<path id="Vector - 0" fill-rule="evenodd" clip-rule="evenodd" d="M17.9831 9.70531L2.25 0.7025C1.78305 0.430199 1.2057 0.430199 0.73875 0.7025C0.278673 0.966307 -0.00363588 1.45748 0 1.98781V20.0122C-0.00151396 20.542 0.28215 21.0316 0.7425 21.2938C1.20945 21.5661 1.7868 21.5661 2.25375 21.2938L17.9831 12.2937C18.4559 12.0345 18.7497 11.5382 18.7497 10.9991C18.7497 10.4599 18.4559 9.96361 17.9831 9.70438V9.70531ZM1.5 18.9378V3.06219L9.43969 11L1.5 18.9378ZM10.5 12.0603L12.2738 13.8341L3.97687 18.5834L10.5 12.0603ZM3.975 3.41563L12.2747 8.16594L10.5 9.93969L3.975 3.41563ZM13.6228 13.0625L11.5603 11L13.6228 8.9375L17.2256 11L13.6228 13.0625Z" fill="#3CA3DC"/>
</svg>
