<svg width="18" height="18" viewBox="0 0 18 18" fill="none" xmlns="http://www.w3.org/2000/svg">
<path id="Vector - 0" fill-rule="evenodd" clip-rule="evenodd" d="M13.5 5.25C14.2137 5.24361 14.9142 5.44209 15.5184 5.82187C15.8646 6.0435 16.3041 6.05867 16.6648 5.86146C17.0254 5.66425 17.2498 5.28604 17.25 4.875V1.5C17.25 0.671573 16.5784 0 15.75 0H2.25C1.42157 0 0.75 0.671573 0.75 1.5V16.5C0.75 17.3284 1.42157 18 2.25 18H15.75C16.5784 18 17.25 17.3284 17.25 16.5V13.125C17.2495 12.7147 17.0256 12.3372 16.6658 12.14C16.3061 11.9427 15.8675 11.957 15.5212 12.1772C14.8416 12.6131 14.2641 12.7781 13.53 12.75H13.5C11.4289 12.75 9.75 11.0711 9.75 9C9.75 6.92893 11.4289 5.25 13.5 5.25ZM8.25 9C8.25359 11.8922 10.5929 14.2381 13.485 14.25C14.2687 14.289 15.0492 14.1239 15.75 13.7709V16.5H2.25V1.5H15.75V4.24031C14.12 3.48383 12.2171 3.60862 10.6999 4.5715C9.18263 5.53438 8.25952 7.20304 8.25 9Z" fill="#3CA3DC"/>
</svg>
