<svg width="18" height="24" viewBox="0 0 18 24" fill="none" xmlns="http://www.w3.org/2000/svg">
<path d="M12.1167 5.66211H6.0338C5.83214 5.66211 5.63874 5.74222 5.49614 5.88481C5.35355 6.02741 5.27344 6.22081 5.27344 6.42247C5.27344 6.62413 5.35355 6.81753 5.49614 6.96013C5.63874 7.10273 5.83214 7.18284 6.0338 7.18284H12.1167C12.3184 7.18284 12.5118 7.10273 12.6544 6.96013C12.797 6.81753 12.8771 6.62413 12.8771 6.42247C12.8771 6.22081 12.797 6.02741 12.6544 5.88481C12.5118 5.74222 12.3184 5.66211 12.1167 5.66211ZM12.1167 9.73766H6.0338C5.83214 9.73766 5.63874 9.81777 5.49614 9.96036C5.35355 10.103 5.27344 10.2964 5.27344 10.498C5.27344 10.6997 5.35355 10.8931 5.49614 11.0357C5.63874 11.1783 5.83214 11.2584 6.0338 11.2584H12.1167C12.3184 11.2584 12.5118 11.1783 12.6544 11.0357C12.797 10.8931 12.8771 10.6997 12.8771 10.498C12.8771 10.2964 12.797 10.103 12.6544 9.96036C12.5118 9.81777 12.3184 9.73766 12.1167 9.73766ZM12.1167 13.8968H6.0338C5.83214 13.8968 5.63874 13.977 5.49614 14.1195C5.35355 14.2621 5.27344 14.4555 5.27344 14.6572C5.27344 14.8589 5.35355 15.0523 5.49614 15.1949C5.63874 15.3375 5.83214 15.4176 6.0338 15.4176H12.1167C12.3184 15.4176 12.5118 15.3375 12.6544 15.1949C12.797 15.0523 12.8771 14.8589 12.8771 14.6572C12.8771 14.4555 12.797 14.2621 12.6544 14.1195C12.5118 13.977 12.3184 13.8968 12.1167 13.8968Z" fill="#3CA3DC"/>
<path d="M17.4389 3.51069C17.4389 2.70405 17.1185 1.93044 16.5481 1.36006C15.9777 0.789676 15.2041 0.469238 14.3975 0.469238H3.75239C2.94575 0.469238 2.17215 0.789676 1.60176 1.36006C1.03138 1.93044 0.710941 2.70405 0.710941 3.51069V21.9647C0.710444 22.155 0.76061 22.342 0.856288 22.5065C0.951966 22.671 1.08971 22.8071 1.25537 22.9008C1.42102 22.9944 1.60863 23.0423 1.79891 23.0395C1.9892 23.0367 2.1753 22.9833 2.33812 22.8847L5.13626 21.212C5.17698 21.1854 5.22453 21.1713 5.27312 21.1713C5.32171 21.1713 5.36926 21.1854 5.40999 21.212L8.51987 23.0748C8.68872 23.1725 8.87991 23.2248 9.07494 23.2269C9.26821 23.2296 9.45819 23.1768 9.6224 23.0748L12.7475 21.212C12.7897 21.1857 12.8384 21.1717 12.8882 21.1717C12.9379 21.1717 12.9866 21.1857 13.0288 21.212L15.8118 22.8847C15.9746 22.9833 16.1607 23.0367 16.351 23.0395C16.5412 23.0423 16.7289 22.9944 16.8945 22.9008C17.0602 22.8071 17.1979 22.671 17.2936 22.5065C17.3893 22.342 17.4394 22.155 17.4389 21.9647V3.51069ZM15.9182 21.1739L13.812 19.9041C13.5344 19.7364 13.2163 19.6478 12.892 19.6478C12.5677 19.6478 12.2495 19.7364 11.9719 19.9041L9.07494 21.6301L6.19316 19.9041C5.91615 19.7348 5.59778 19.6452 5.27312 19.6452C4.94846 19.6452 4.63009 19.7348 4.35308 19.9041L2.23167 21.1739V3.51069C2.23167 3.10737 2.39189 2.72057 2.67708 2.43538C2.96227 2.15018 3.34907 1.98996 3.75239 1.98996H14.3975C14.8008 1.98996 15.1876 2.15018 15.4728 2.43538C15.758 2.72057 15.9182 3.10737 15.9182 3.51069V21.1739Z" fill="#3CA3DC"/>
</svg>
