<svg width="17" height="16" viewBox="0 0 17 16" fill="none" xmlns="http://www.w3.org/2000/svg">
<g id="Stats" clip-path="url(#clip0_251_1610)">
<g id="Page-1">
<g id="Dribbble-Light-Preview">
<g id="icons">
<path id="stats-[#1371]" fill-rule="evenodd" clip-rule="evenodd" d="M9.34999 13.6C9.34999 14.0416 8.96952 14.4 8.5 14.4C8.03048 14.4 7.65001 14.0416 7.65001 13.6V2.4C7.65001 1.9584 8.03048 1.6 8.5 1.6C8.96952 1.6 9.34999 1.9584 9.34999 2.4V13.6ZM9.34999 0H7.65001C6.71096 0 5.95001 0.716 5.95001 1.6V14.4C5.95001 15.284 6.71096 16 7.65001 16H9.34999C10.289 16 11.05 15.284 11.05 14.4V1.6C11.05 0.716 10.289 0 9.34999 0ZM3.40001 13.6C3.40001 14.0416 3.01952 14.4 2.55 14.4C2.08047 14.4 1.7 14.0416 1.7 13.6V5.6C1.7 5.1584 2.08047 4.8 2.55 4.8C3.01952 4.8 3.40001 5.1584 3.40001 5.6V13.6ZM3.40001 3.2H1.7C0.760957 3.2 0 3.916 0 4.8V14.4C0 15.284 0.760957 16 1.7 16H3.40001C4.33906 16 5.09999 15.284 5.09999 14.4V4.8C5.09999 3.916 4.33906 3.2 3.40001 3.2ZM15.3 13.6C15.3 14.0416 14.9195 14.4 14.45 14.4C13.9805 14.4 13.6 14.0416 13.6 13.6V10.4C13.6 9.9584 13.9805 9.6 14.45 9.6C14.9195 9.6 15.3 9.9584 15.3 10.4V13.6ZM15.3 8H13.6C12.6609 8 11.9 8.716 11.9 9.6V14.4C11.9 15.284 12.6609 16 13.6 16H15.3C16.239 16 17 15.284 17 14.4V9.6C17 8.716 16.239 8 15.3 8Z" fill="#3CA3DC"/>
</g>
</g>
</g>
</g>
<defs>
<clipPath id="clip0_251_1610">
<rect width="17" height="16" fill="white"/>
</clipPath>
</defs>
</svg>
