<svg width="22" height="18" viewBox="0 0 22 18" fill="none" xmlns="http://www.w3.org/2000/svg">
<path id="Vector" d="M7.41531 8.5C9.61531 8.5 11.4153 6.7 11.4153 4.5C11.4153 2.3 9.61531 0.5 7.41531 0.5C5.21531 0.5 3.41531 2.3 3.41531 4.5C3.41531 6.7 5.21531 8.5 7.41531 8.5ZM11.9153 7.6C13.6153 9 16.1153 8.7 17.5153 7C18.9153 5.3 18.6153 2.8 16.9153 1.4C16.2153 0.8 15.3153 0.5 14.4153 0.5C13.5153 0.5 12.6153 0.8 11.9153 1.4C13.6153 2.8 13.9153 5.2 12.5153 7C12.4153 7.2 12.1153 7.4 11.9153 7.6ZM21.8153 16.4C21.2153 12.7 18.1153 10 14.4153 10C13.5153 10 12.7153 10.1 11.9153 10.4C14.5153 11.3 16.4153 13.6 16.8153 16.3C16.9153 16.8 16.5153 17.4 15.9153 17.4H15.8153H20.8153C21.4153 17.4 21.8153 17 21.8153 16.4ZM7.41531 10C3.71531 10 0.515314 12.7 0.0153144 16.4C-0.0846856 16.9 0.315314 17.5 0.915314 17.5H1.01531H13.8153C14.4153 17.5 14.8153 17.1 14.8153 16.5V16.4C14.3153 12.7 11.1153 10 7.41531 10Z" fill="#3CA3DC"/>
</svg>
