<svg width="1133" height="151" viewBox="0 0 1133 151" fill="none" xmlns="http://www.w3.org/2000/svg">
<path d="M133.592 69.7489C133.592 93.8859 104.993 113.308 69.6872 113.308C34.3809 113.308 5.78809 93.8643 5.78809 69.7489C5.78809 45.6335 34.3809 26.1953 69.6656 26.1953C104.68 26.1953 133.57 45.6389 133.57 69.7543" fill="white"/>
<path d="M70.1461 25.9517C34.7966 25.6546 5.57728 44.6499 5.57728 68.9004V70.067C6.74929 86.1403 0.905421 94.0258 0.0250591 95.7811C-0.266594 96.6561 2.07204 100.161 2.65534 100.745C3.23865 100.161 3.5357 99.2863 4.11901 98.4114C4.11901 98.4114 5.86893 95.1708 5.57728 95.1708C6.45224 93.4155 7.62426 95.4624 6.7493 97.2124C6.45224 98.0927 5.28563 99.2593 4.11901 101.598C3.5357 102.473 2.947 104.52 3.23865 104.839C2.947 105.422 3.23865 106.588 3.5357 106.588C3.5357 107.469 4.70232 107.76 4.70232 108.052C4.99397 108.052 4.99397 108.344 5.57728 108.052C6.45224 105.714 8.20756 101.031 10.2545 99.578C11.4212 98.703 12.5878 100.745 12.2961 100.745C12.0045 101.333 11.1295 102.208 10.5462 103.083C9.91021 103.94 9.50648 104.946 9.37418 106.005C8.81208 107.005 8.41797 108.091 8.20756 109.219C8.49921 109.51 11.1295 110.974 11.7128 111.849L13.7598 115.63V116.802C14.6591 115.004 15.4403 113.149 16.0984 111.25C16.6817 110.375 16.6817 109.203 17.8483 108.911C17.8868 108.91 17.9251 108.917 17.9608 108.932C17.9965 108.946 18.029 108.967 18.0562 108.995C18.0834 109.022 18.1049 109.054 18.1193 109.09C18.1337 109.126 18.1407 109.164 18.14 109.203C18.0844 110.01 17.887 110.802 17.5567 111.541C16.3901 114.463 15.218 117.385 14.0514 120.015C14.4394 121.086 15.1559 122.007 16.0984 122.646C16.9734 120.307 20.187 112.416 21.6452 112.124C22.8172 111.833 22.8172 113.88 22.2339 114.755C21.9423 115.338 19.6037 120.89 18.9933 123.521C24.5402 122.937 27.7537 125.271 29.7953 127.901C30.3786 128.484 30.3786 129.364 30.9619 129.948C31.5506 126.167 32.134 122.057 32.4256 117.968C33.5922 122.349 31.8423 127.317 31.5506 131.698C32.4256 132.578 33.3006 133.745 34.7642 134.328C35.0799 132.15 35.5675 130.001 36.2225 127.901C36.5142 126.734 36.8058 125.271 37.0975 124.396C37.5943 123.481 38.3793 122.756 39.3305 122.333C40.2818 121.91 41.346 121.813 42.358 122.057C39.1444 124.396 38.5773 129.364 38.2695 134.036C39.7277 133.745 40.6081 132.87 42.358 132.578C42.6497 131.995 42.6497 131.995 42.6497 132.578C43.5045 132.337 44.3931 132.239 45.28 132.286C46.5737 132.407 47.8453 132.702 49.0607 133.161C51.6909 134.328 52.8414 136.667 55.1962 138.422C56.3682 135.208 55.7849 130.239 57.5348 127.317C56.6598 130.823 57.2432 135.5 56.3682 139.005C56.9878 139.371 57.6906 139.572 58.4098 139.589C58.4559 135.17 58.9701 130.769 59.9437 126.459C61.1103 126.167 62.2823 125.287 63.4489 125.287C61.6936 128.5 61.9906 133.761 61.9906 138.146C63.4489 135.808 65.7713 134.636 69.2928 134.933C70.199 134.956 71.0922 135.154 71.923 135.516C73.3813 136.099 73.9646 137.266 75.1636 138.146C76.1881 138.879 77.4097 139.286 78.6689 139.313C78.3772 135.532 77.2052 129.089 79.8355 126.459C79.2522 127.625 79.2522 128.797 78.9605 129.964C78.9605 130.256 78.6689 130.839 78.9605 131.131V131.714C78.6689 134.053 79.5438 136.683 79.5438 139.313C80.1272 139.605 81.0075 139.021 81.5908 138.73C80.7159 134.949 79.5439 129.672 81.0075 125.578C81.5908 125.287 82.1741 124.703 82.4658 124.703C81.5908 128.797 82.4658 133.178 83.3408 136.683C83.0491 137.266 82.4658 137.849 82.1741 138.438C81.8825 138.73 81.5908 138.73 82.1741 138.438C83.3407 137.849 83.6378 136.099 84.2211 135.225C85.3877 133.761 88.0018 132.886 90.3566 132.594C93.8619 132.303 95.0285 135.516 98.5337 134.933C98.2421 130.547 98.5337 125.578 100.289 122.073C99.3546 126.294 99.1572 130.645 99.7057 134.933C100.289 134.933 100.581 134.636 100.872 134.636C100.289 130.256 100.581 124.995 101.164 120.906C101.784 120.252 102.47 119.664 103.211 119.151C102.672 121.648 102.573 124.22 102.919 126.75C102.919 127.917 103.503 129.089 103.211 130.256C103.211 130.839 102.628 131.422 102.628 131.714C102.421 132.573 102.02 133.373 101.456 134.053C101.747 133.761 101.747 133.469 102.044 133.469C103.211 131.131 103.794 129.089 105.55 127.625C105.882 127.265 106.277 126.969 106.716 126.75C108.763 125.578 111.977 125.287 114.607 125.875C114.315 122.953 113.727 118.276 114.899 115.646H115.19C117.529 117.693 116.065 122.365 116.649 125.875C116.878 125.861 117.093 125.764 117.256 125.602C117.418 125.44 117.515 125.224 117.529 124.995C117.821 121.781 117.232 117.974 117.529 114.479C117.821 114.479 117.529 114.188 117.821 114.188C118.696 116.818 118.112 120.907 118.404 123.828C118.482 122.669 118.886 121.554 119.571 120.615C120.154 119.74 119.571 117.401 124.831 114.188C124.54 110.974 123.956 106.588 124.831 104.255C125.123 104.255 125.123 103.958 125.123 104.255C127.17 106.005 126.586 110.094 126.878 113.307L127.753 112.432C127.753 109.219 127.17 106.005 127.461 102.792C127.753 102.792 127.461 102.5 127.753 102.5C128.628 104.839 128.336 108.052 128.628 110.974C128.92 108.635 127.753 105.714 130.383 102.208C130.092 99.8696 129.8 96.3644 130.675 94.3174H130.967C132.722 95.4894 132.425 97.8227 132.133 100.161C132.425 99.8696 132.722 99.8696 133.014 99.578V96.6561C131.842 94.6091 131.842 92.2758 132.133 85.5516C132.425 80.2964 133.597 73.5776 133.597 72.9889C133.55 72.1039 133.648 71.2171 133.889 70.364C134.18 46.1136 105.841 26.2433 70.1947 25.9517M132.717 70.067C132.425 93.4425 104.091 112.141 69.6114 111.849C34.8452 111.557 7.08956 92.2759 7.38121 68.9004C7.67286 45.5249 36.0065 26.8266 70.4864 27.1183C104.961 27.1183 132.717 46.4052 132.717 70.067Z" fill="#3CA3DC"/>
<path d="M94.3963 91.3963C90.0161 100.745 79.8136 106.006 70.1458 106.589C68.4929 106.693 66.8352 106.693 65.1823 106.589C55.5361 106.298 47.9423 103.084 43.8538 97.5319C42.1175 95.3338 40.9989 92.7125 40.6132 89.9381C30.3837 88.1827 21.3263 85.5525 14.6074 82.3389C22.7899 97.5319 44.1184 108.636 69.5355 108.928C94.3801 109.22 115.984 98.9955 124.464 84.0834C116.281 87.324 106.057 89.9273 94.3693 91.3855" fill="#3CA3DC"/>
<path d="M64.8043 103.754C56.3518 103.133 49.2711 100.162 46.0575 95.7818C44.7769 94.0393 43.9449 92.0085 43.635 89.8684C43.3251 87.7283 43.5468 85.5448 44.2805 83.5107C45.7388 79.73 48.6608 76.4894 52.166 75.9115C53.1176 75.6557 54.1046 75.5572 55.0879 75.6199H55.6766C60.3485 75.9115 63.6593 79.0549 63.7349 82.8518C63.7032 83.1728 63.6454 83.4907 63.5621 83.8024C63.1944 84.7462 62.5534 85.5588 61.7211 86.1362C60.8888 86.7135 59.9031 87.0292 58.8902 87.043C58.8902 87.043 58.3015 87.043 58.3015 87.3346C58.3015 88.2096 59.4735 90.5482 61.2235 91.7148C62.8482 92.8598 64.788 93.4731 66.7757 93.4701H67.359C70.8642 93.4701 74.6665 91.7148 76.7081 89.0899C77.6013 88.0603 78.2496 86.8416 78.6041 85.5254C78.9587 84.2092 79.0103 82.8297 78.7551 81.4907C77.8801 76.8189 72.6195 73.8969 67.359 70.975C59.7652 66.5894 50.1244 61.3342 53.0464 49.0632C54.7963 41.464 64.437 35.9118 72.3279 35.6201H75.8331C83.4323 35.9118 89.5679 38.8337 91.6094 42.9277C93.435 46.1359 92.5654 50.5269 91.1882 53.0275C89.476 55.728 87.4939 56.657 84.815 56.657C84.815 56.657 82.0011 56.9108 80.4078 55.0637C78.7281 53.1193 79.3546 49.4359 79.9217 48.4745C79.4457 47.8399 78.8284 47.3249 78.1187 46.9705C77.409 46.6161 76.6264 46.4321 75.8331 46.4329H75.5415C73.3706 46.4539 71.286 47.2861 69.6976 48.7661C69.1621 49.2425 68.7304 49.824 68.4294 50.4744C68.1283 51.1249 67.9644 51.8303 67.9477 52.5468C67.9477 55.7604 72.4575 58.0396 77.0052 60.7239C77.8315 61.264 79.3384 62.1876 79.3384 62.1876C86.3597 66.2761 94.2397 70.9534 93.9481 81.7608C93.6564 95.2039 81.6608 102.862 70.5726 103.673C68.6575 103.894 66.7249 103.921 64.8043 103.754Z" fill="#3AA5DE"/>
<path d="M71.9018 33.8426C73.1224 33.7885 75.1424 33.8426 75.407 33.8426C84.4645 34.1342 91.8531 37.4666 94.1053 42.9C94.4563 43.7534 94.6886 44.6499 94.9802 45.2332C104.329 46.6969 112.804 48.7439 119.522 51.0771C109.298 39.6864 90.8971 31.7956 69.5632 31.5039C47.9592 31.2123 28.9531 39.0977 18.7236 50.7855C27.4894 47.5449 38.8855 45.2332 51.7399 44.0666C56.7088 37.9311 64.8859 34.1342 71.9018 33.8426Z" fill="#3CA3DC"/>
<path d="M158.674 98.7034L167.731 90.8125C169.926 92.8758 172.381 94.6442 175.033 96.0731C177.372 97.2397 180.294 97.5313 183.508 97.5313C186.721 97.5313 189.351 96.948 191.398 95.4898C193.445 94.0315 194.32 92.5678 194.32 90.2292C194.32 87.0156 190.226 84.677 182.049 83.5104C181.556 83.4423 181.067 83.3449 180.586 83.2187C173.284 82.0467 168.023 80.2968 165.101 77.9581C162.179 75.6195 160.721 72.1143 160.721 67.4424C160.721 62.1818 162.762 58.0933 167.148 54.5827C171.528 51.3691 176.789 49.6191 183.799 49.6191C188.185 49.6191 191.982 50.2024 195.487 51.6607C199.149 53.2075 202.51 55.3847 205.419 58.0933L198.398 65.6871C196.284 63.8923 193.918 62.4166 191.377 61.3069C188.843 60.3965 186.178 59.9023 183.486 59.8432C180.272 59.8432 177.642 60.4265 175.892 61.5985C174.142 62.7706 172.97 64.2288 172.97 65.9787C172.97 68.9007 176.751 70.656 184.361 71.8226C187.283 72.4059 189.622 72.6976 191.382 72.9892C196.637 73.8696 200.731 75.9112 203.356 78.5415C205.981 81.1717 207.137 84.677 207.137 89.0626C207.137 94.6094 205.09 99.2867 200.71 102.792C196.33 106.297 190.772 108.052 184.053 108.052C179.183 108.109 174.34 107.317 169.74 105.714C165.477 104.44 161.647 102.014 158.674 98.7034Z" fill="#3CA3DC"/>
<path d="M241.649 108.636C233.758 108.636 227.606 106.005 222.659 100.453C217.712 94.9011 215.352 87.8906 215.352 79.1248C215.352 70.359 217.69 63.0568 222.659 57.7962C227.628 52.5357 233.758 49.6191 241.649 49.6191C249.54 49.6191 255.692 52.2494 260.639 57.7962C265.608 63.0568 267.941 70.3644 267.941 79.1248C267.941 87.8852 265.608 94.9065 260.639 100.453C255.967 106.005 249.518 108.636 241.649 108.636ZM227.914 79.1248C227.914 84.677 229.086 89.0626 231.695 92.2762C234.304 95.4898 237.539 97.2397 241.627 97.2397C243.561 97.28 245.476 96.8491 247.207 95.9844C248.937 95.1197 250.431 93.847 251.56 92.2762C254.19 89.0626 255.341 84.677 255.341 79.1248C255.341 73.5725 254.174 69.1923 251.56 65.9787C248.946 62.7652 245.716 61.0098 241.627 61.0098C239.693 60.9697 237.778 61.4011 236.047 62.2669C234.317 63.1326 232.823 64.4066 231.695 65.9787C229.086 69.484 227.914 73.8696 227.914 79.1248Z" fill="#3CA3DC"/>
<path d="M312.936 107.172V102.208C311.187 104.255 308.848 105.713 306.509 106.88C303.895 107.868 301.121 108.364 298.327 108.344C291.305 108.344 285.472 105.713 281.092 100.453C276.712 95.1922 274.665 88.1817 274.665 79.3889C274.665 70.5961 276.707 63.6126 281.092 58.3574C285.478 53.1023 291.025 50.499 298.327 50.499C301.121 50.4787 303.895 50.9749 306.509 51.9627C308.848 52.8376 310.889 54.5875 312.936 56.6345V30.04H324.916V107.469L312.936 107.172ZM312.936 79.4159C312.936 73.2804 312.062 68.9002 310.015 65.9782C307.968 63.0563 304.754 61.598 300.665 61.598C296.285 61.598 293.072 63.0563 290.733 66.2699C288.394 69.4835 287.228 73.8691 287.228 79.4159C287.228 84.9627 288.394 89.3537 290.733 92.5673C293.072 95.7809 296.285 97.2392 300.665 97.2392C304.754 97.2392 307.968 95.7809 310.015 92.859C311.77 89.9262 312.936 85.2598 312.936 79.4159Z" fill="#3CA3DC"/>
<path d="M373.126 107.172C372.221 106.622 371.506 105.808 371.079 104.839C370.501 103.969 370.501 103.084 370.501 101.917C368.597 103.836 366.307 105.329 363.782 106.297C361.064 107.278 358.193 107.77 355.303 107.75C350.173 107.859 345.18 106.092 341.26 102.781C337.755 99.5675 335.708 95.479 335.708 90.5101C335.708 85.2495 337.463 81.1609 340.677 78.5306C343.891 75.9004 350.026 73.8588 359.083 72.3951C366.72 71.2393 370.501 68.9007 370.501 65.6871C370.519 64.7836 370.281 63.8933 369.816 63.1186C369.351 62.3438 368.677 61.7159 367.871 61.3069C366.116 60.1349 363.782 59.5516 360.569 59.5516C357.058 59.5516 354.433 60.1349 352.678 61.5985C350.923 63.0622 349.756 64.8121 349.756 67.4424H338.063C338.646 61.3069 340.985 56.6404 344.782 53.9993C348.562 51.0774 353.839 49.6191 361.147 49.6191C368.454 49.6191 373.709 50.7858 376.923 53.3998C380.137 56.0139 381.886 60.1187 381.886 66.2542V94.3015C381.886 98.0822 381.886 100.729 382.184 102.484C382.493 104.091 382.982 105.658 383.642 107.156L373.126 107.172ZM370.496 78.5468C367.258 79.6802 363.937 80.5597 360.563 81.1771C352.678 82.9055 348.584 85.849 348.584 89.9267C348.538 90.9245 348.725 91.9194 349.129 92.8325C349.534 93.7456 350.147 94.5518 350.917 95.1873C352.381 96.6456 354.698 97.2289 357.35 97.2289C362.022 97.2289 365.235 96.0623 367.282 93.7236C369.329 91.385 370.523 87.8798 370.523 82.9217V80.583C370.787 79.7135 370.501 79.1248 370.501 78.5415L370.496 78.5468Z" fill="#3CA3DC"/>
<path d="M441.491 92.8593C439.153 98.1199 435.939 101.917 432.142 104.547C427.961 107.251 423.079 108.672 418.1 108.636C410.214 108.636 404.057 106.005 399.11 100.453C394.162 94.9009 391.808 87.8904 391.808 78.8492C391.808 70.3804 394.141 63.3645 399.11 57.7853C404.079 52.2061 410.506 49.6082 418.1 49.6082C423.079 49.5693 427.962 50.9907 432.142 53.6967C436.231 56.6187 439.163 60.4156 441.491 65.6762L430.689 70.9367C429.523 67.6961 427.767 65.0928 425.726 63.6292C423.679 61.8792 421.049 61.2959 418.127 61.2959C414.346 61.2959 411.105 63.0459 408.486 66.2595C405.866 69.473 404.705 73.8587 404.705 78.8222C404.705 84.3744 405.872 88.76 408.486 91.9736C411.1 95.1872 414.319 96.9479 418.407 96.9479C421.116 96.9362 423.76 96.1224 426.007 94.6093C428.279 92.5944 430.076 90.1004 431.267 87.3071L441.491 92.8593Z" fill="#3CA3DC"/>
<path d="M452.299 107.172V29.749H464.278V107.172H452.299Z" fill="#3CA3DC"/>
<path d="M478.013 43.1921V29.749H489.992V43.1921H478.013ZM478.013 107.172V51.3692H489.992V107.172H478.013Z" fill="#3CA3DC"/>
<path d="M549.592 92.8594C547.253 98.1199 544.04 101.917 540.243 104.547C536.061 107.251 531.18 108.673 526.2 108.636C518.315 108.636 512.158 106.005 507.21 100.453C502.538 94.9063 499.908 87.8905 499.908 78.8492C499.908 70.3804 502.247 63.3646 507.21 57.7853C512.174 52.2061 518.606 49.6082 526.2 49.6082C531.18 49.5687 536.062 50.9901 540.243 53.6968C544.331 56.6187 547.264 60.4156 549.592 65.6762L538.79 70.9367C537.623 67.6961 535.873 65.0929 533.826 63.6292C531.779 61.8793 529.149 61.296 526.227 61.296C522.447 61.296 519.206 63.0459 516.586 66.2595C513.967 69.4731 512.806 73.8587 512.806 78.8222C512.806 84.3744 513.972 88.76 516.586 91.9736C519.201 95.1872 522.43 96.9371 526.519 96.9371C529.227 96.9254 531.872 96.1117 534.118 94.5985C536.392 92.5848 538.189 90.0905 539.379 87.2963L549.592 92.8594Z" fill="#3CA3DC"/>
<path d="M560.405 107.172V29.749H572.379V75.0363L594.296 51.3692H608.609L588.744 72.9732L609.484 107.156H595.182L579.989 81.1557L572.39 89.3382V107.161L560.405 107.172Z" fill="#3CA3DC"/>
<path d="M644.604 11.7471L644.604 145.422" stroke="black" stroke-width="10" stroke-linecap="round"/>
<path d="M722.675 62.5277C740.091 66.0329 746.883 72.0575 746.883 84.8734C746.883 99.9896 732.971 107.986 715.445 107.986C696.824 107.986 684.884 98.6751 683.899 81.9159H701.206C702.41 88.7072 706.025 94.1841 715.665 94.1841C724.318 94.1841 729.576 89.8026 729.576 84.6543C729.576 79.0679 726.18 76.7676 718.403 75.3436L708.326 73.4815C695.51 70.9621 685.651 65.8138 685.651 51.4644C685.651 38.2103 696.934 29.3378 714.241 29.3378C731.547 29.3378 743.487 37.2245 744.802 52.8884H727.604C726.728 46.2066 722.127 43.1395 714.241 43.1395C706.025 43.1395 702.739 48.3973 702.739 51.9025C702.739 55.5173 704.382 58.913 710.845 60.1179L722.675 62.5277ZM808.399 80.6014C808.399 81.6968 808.399 82.5731 808.29 83.5589H768.528C769.732 92.322 774.224 95.9367 782.001 95.9367C788.025 95.9367 791.311 93.965 792.954 90.6789H806.866C803.58 102.18 794.926 107.767 781.124 107.767C768.199 107.767 753.083 99.7705 753.083 78.8488C753.083 57.5985 768.089 49.4927 781.234 49.4927C795.364 49.4927 808.399 57.5985 808.399 80.6014ZM768.637 73.7005H793.174C792.954 66.252 788.792 61.3228 781.234 61.3228C774.224 61.3228 769.842 65.3757 768.637 73.7005ZM848.555 49.4927C858.523 49.4927 873.639 57.5985 873.639 78.5202C873.639 99.8801 858.523 107.767 848.226 107.767C837.273 107.767 833.001 100.756 833.001 99.661V127.812H817.008V50.0404H833.001V57.1604C834.863 53.9838 840.559 49.4927 848.555 49.4927ZM844.94 94.8413C851.841 94.8413 858.194 90.0217 858.194 78.5202C858.194 67.1283 851.841 62.4182 844.94 62.4182C837.93 62.4182 832.344 67.5664 832.344 78.5202C832.344 89.5835 837.93 94.8413 844.94 94.8413ZM916.545 49.4927C928.266 49.4927 936.81 55.4078 936.81 72.7147V107H920.817V73.591C920.817 65.7043 916.326 62.7468 910.63 62.7468C902.634 62.7468 898.8 69.7572 898.253 73.3719V107H882.26V29.6664H898.253V61.3228C899.896 57.3794 906.03 49.4927 916.545 49.4927ZM973.676 49.4927C985.725 49.4927 1001.94 57.489 1001.94 78.7393C1001.94 99.7705 985.725 107.767 973.676 107.767C961.627 107.767 945.416 99.7705 945.416 78.7393C945.416 57.489 961.627 49.4927 973.676 49.4927ZM986.602 78.7393C986.602 67.0187 980.468 62.4182 973.676 62.4182C966.885 62.4182 960.751 67.0187 960.751 78.7393C960.751 89.9121 966.885 94.8413 973.676 94.8413C980.468 94.8413 986.602 89.9121 986.602 78.7393ZM1044.91 49.4927C1056.63 49.4927 1065.17 55.4078 1065.17 72.7147V107H1049.18V73.591C1049.18 65.7043 1044.69 62.7468 1038.99 62.7468C1031 62.7468 1027.16 69.7572 1026.62 73.3719V107H1010.62V50.0404H1026.62V61.3228C1028.26 57.3794 1034.39 49.4927 1044.91 49.4927ZM1126.14 92.2124C1126.14 95.6081 1127.67 97.1416 1130.3 97.3607V106.452C1128.33 107.329 1126.8 107.438 1124.5 107.438C1117.49 107.438 1111.9 104.481 1111.9 98.3465V97.9084C1111.02 99.3324 1106.53 107.767 1093.17 107.767C1083.2 107.767 1073.78 102.838 1073.78 90.2407C1073.78 77.3153 1084.41 75.1245 1094.81 73.2624C1101.05 72.0575 1106.97 71.5098 1110.15 69.6477V69.5381C1110.15 62.0896 1105.11 61.2133 1101.16 61.2133C1096.67 61.2133 1092.84 62.5277 1092.07 67.5664H1076.96C1078.05 55.6268 1086.16 49.4927 1101.27 49.4927C1119.24 49.4927 1126.14 56.6127 1126.14 73.3719V92.2124ZM1110.15 89.0358V78.9584C1106.09 81.0396 1102.37 81.4777 1097.22 82.5731C1091.85 83.8875 1089.77 85.9688 1089.77 89.5835C1089.77 93.0887 1092.07 96.3748 1097.55 96.3748C1105.11 96.3748 1109.05 91.0075 1110.15 89.0358Z" fill="black"/>
</svg>
