<svg width="28" height="24" viewBox="0 0 28 24" fill="none" xmlns="http://www.w3.org/2000/svg">
<path id="Layer 5" d="M23 0H5C3.67392 0 2.40215 0.526784 1.46447 1.46447C0.526784 2.40215 0 3.67392 0 5V19C0 20.3261 0.526784 21.5979 1.46447 22.5355C2.40215 23.4732 3.67392 24 5 24H23C24.3261 24 25.5979 23.4732 26.5355 22.5355C27.4732 21.5979 28 20.3261 28 19V5C28 3.67392 27.4732 2.40215 26.5355 1.46447C25.5979 0.526784 24.3261 0 23 0ZM26 19C26 19.7956 25.6839 20.5587 25.1213 21.1213C24.5587 21.6839 23.7956 22 23 22H5C4.20435 22 3.44129 21.6839 2.87868 21.1213C2.31607 20.5587 2 19.7956 2 19V5C2 4.20435 2.31607 3.44129 2.87868 2.87868C3.44129 2.31607 4.20435 2 5 2H8C8.52063 2.00009 9.03227 2.13567 9.48463 2.39341C9.93699 2.65114 10.3145 3.02217 10.58 3.47C11.0205 4.23307 11.6527 4.86789 12.4139 5.31163C13.1751 5.75537 14.0389 5.99265 14.92 6H23C23.7956 6 24.5587 6.31607 25.1213 6.87868C25.6839 7.44129 26 8.20435 26 9V19ZM26 5C25.1373 4.34562 24.0828 3.99413 23 4H14.92C14.3848 3.99273 13.861 3.84474 13.4011 3.57092C12.9412 3.29709 12.5614 2.90705 12.3 2.44C12.2 2.29 12.1 2.14 11.99 2H23C23.7956 2 24.5587 2.31607 25.1213 2.87868C25.6839 3.44129 26 4.20435 26 5Z" fill="black"/>
</svg>
