<svg width="18" height="18" viewBox="0 0 18 18" fill="none" xmlns="http://www.w3.org/2000/svg">
<rect x="0.361111" y="0.361111" width="16.6111" height="16.6111" rx="3.25" stroke="black" stroke-width="0.722222"/>
<path d="M13.722 7.94314H9.38867V3.60981C9.38867 3.41826 9.31258 3.23456 9.17714 3.09912C9.04169 2.96368 8.85799 2.88759 8.66645 2.88759C8.4749 2.88759 8.2912 2.96368 8.15576 3.09912C8.02032 3.23456 7.94423 3.41826 7.94423 3.60981V7.94314H3.61089C3.41935 7.94314 3.23565 8.01923 3.10021 8.15468C2.96476 8.29012 2.88867 8.47382 2.88867 8.66536C2.88867 8.85691 2.96476 9.04061 3.10021 9.17605C3.23565 9.3115 3.41935 9.38759 3.61089 9.38759H7.94423V13.7209C7.94423 13.9125 8.02032 14.0962 8.15576 14.2316C8.2912 14.3671 8.4749 14.4431 8.66645 14.4431C8.85799 14.4431 9.04169 14.3671 9.17714 14.2316C9.31258 14.0962 9.38867 13.9125 9.38867 13.7209V9.38759H13.722C13.9136 9.38759 14.0973 9.3115 14.2327 9.17605C14.3681 9.04061 14.4442 8.85691 14.4442 8.66536C14.4442 8.47382 14.3681 8.29012 14.2327 8.15468C14.0973 8.01923 13.9136 7.94314 13.722 7.94314Z" fill="#3CA3DC"/>
</svg>
