<svg width="21" height="18" viewBox="0 0 21 18" fill="none" xmlns="http://www.w3.org/2000/svg">
<g clip-path="url(#clip0_467_90)">
<path d="M16.6024 13.2936L12.1583 9.33014L9.43319 11.7606C9.0894 12.0672 8.53598 12.0522 8.21735 11.7307L2.20524 5.69567C1.91176 5.40402 1.92853 4.95532 2.23878 4.67114C2.57418 4.37201 3.13598 4.37949 3.45462 4.70106L8.81269 10.0705L11.5714 7.61012C11.8984 7.31847 12.4267 7.31847 12.7537 7.61012L17.8602 12.1719C18.1872 12.4636 18.1872 12.9347 17.8602 13.2263L17.7847 13.2936C17.4577 13.5853 16.9211 13.5853 16.6024 13.2936Z" fill="#E31A1A"/>
</g>
<defs>
<clipPath id="clip0_467_90">
<rect width="20.1242" height="17.948" fill="white" transform="matrix(-1 0 0 1 20.124 -0.00292969)"/>
</clipPath>
</defs>
</svg>
