<svg width="48" height="40" viewBox="0 0 48 40" fill="none" xmlns="http://www.w3.org/2000/svg">
<path d="M48 15.499C48 24.0885 37.7067 31 24.999 31C12.2913 31 2 24.0808 2 15.499C2 6.91729 12.2913 0 24.9913 0C37.594 0 47.9922 6.91921 47.9922 15.501" fill="white"/>
<path d="M25.1475 0.00120973C12.4746 -0.10335 1.99946 6.58276 1.99946 15.1186V15.5293C2.41963 21.1869 0.324594 23.9625 0.00898371 24.5803C-0.0955744 24.8883 0.742827 26.1221 0.951943 26.3274C1.16106 26.1221 1.26755 25.8141 1.47667 25.5061C1.47667 25.5061 2.10402 24.3655 1.99946 24.3655C2.31313 23.7476 2.7333 24.4681 2.41963 25.0841C2.31313 25.394 1.8949 25.8046 1.47667 26.6278C1.26755 26.9358 1.0565 27.6563 1.16106 27.7684C1.0565 27.9737 1.16106 28.3844 1.26755 28.3844C1.26755 28.6943 1.68579 28.7969 1.68579 28.8996C1.79034 28.8996 1.79034 29.0022 1.99946 28.8996C2.31313 28.0764 2.94242 26.4282 3.67626 25.9168C4.09449 25.6088 4.51273 26.3274 4.40817 26.3274C4.30361 26.5346 3.98994 26.8426 3.78082 27.1506C3.55282 27.4521 3.40808 27.8064 3.36065 28.1791C3.15914 28.5311 3.01785 28.9132 2.94242 29.3102C3.04698 29.4129 3.98994 29.9281 4.19905 30.236L4.93289 31.5668V31.9793C5.25531 31.3465 5.53537 30.6936 5.7713 30.025C5.98041 29.717 5.98041 29.3045 6.39864 29.2018C6.41245 29.2016 6.42616 29.2041 6.43896 29.2091C6.45177 29.2142 6.4634 29.2218 6.47316 29.2313C6.48293 29.2409 6.49062 29.2523 6.49578 29.2649C6.50094 29.2775 6.50346 29.291 6.5032 29.3045C6.48329 29.5888 6.4125 29.8675 6.29409 30.1277C5.87585 31.1562 5.45568 32.1846 5.03745 33.1105C5.17654 33.4873 5.43339 33.8114 5.7713 34.0363C6.08497 33.2131 7.23704 30.4356 7.75983 30.333C8.18 30.2303 8.18 30.9508 7.97089 31.2588C7.86633 31.4641 7.02793 33.4184 6.80913 34.3443C8.79767 34.139 9.94974 34.9602 10.6817 35.8861C10.8908 36.0914 10.8908 36.4012 11.0999 36.6066C11.3109 35.2758 11.5201 33.8291 11.6246 32.39C12.0428 33.9317 11.4155 35.6807 11.3109 37.2225C11.6246 37.5324 11.9383 37.943 12.463 38.1483C12.5762 37.3819 12.751 36.6254 12.9858 35.8861C13.0904 35.4754 13.1949 34.9602 13.2995 34.6523C13.4776 34.3303 13.759 34.075 14.1 33.9262C14.4411 33.7773 14.8226 33.7432 15.1854 33.8291C14.0333 34.6522 13.83 36.4012 13.7196 38.0457C14.2424 37.943 14.558 37.6351 15.1854 37.5324C15.29 37.3271 15.29 37.3271 15.29 37.5324C15.5964 37.4477 15.915 37.413 16.2329 37.4297C16.6967 37.4724 17.1526 37.5759 17.5883 37.7377C18.5313 38.1483 18.9437 38.9715 19.7879 39.5894C20.2081 38.4582 19.9989 36.7092 20.6263 35.6807C20.3126 36.9145 20.5217 38.5609 20.2081 39.7947C20.4302 39.9234 20.6821 39.994 20.94 40C20.9565 38.4447 21.1408 36.8956 21.4899 35.3785C21.9081 35.2758 22.3283 34.9659 22.7465 34.9659C22.1172 36.0971 22.2237 37.9487 22.2237 39.4924C22.7465 38.6692 23.5791 38.2567 24.8415 38.3613C25.1664 38.3693 25.4866 38.439 25.7845 38.5666C26.3073 38.7719 26.5164 39.1825 26.9462 39.4924C27.3135 39.7503 27.7515 39.8934 28.2029 39.903C28.0983 38.5723 27.6781 36.3043 28.6211 35.3785C28.412 35.7891 28.412 36.2016 28.3074 36.6123C28.3074 36.7149 28.2029 36.9202 28.3074 37.0229V37.2282C28.2029 38.0514 28.5165 38.9772 28.5165 39.903C28.7257 40.0057 29.0413 39.8004 29.2504 39.6977C28.9367 38.367 28.5165 36.5096 29.0413 35.0686C29.2504 34.9659 29.4595 34.7606 29.5641 34.7606C29.2504 36.2016 29.5641 37.7434 29.8777 38.9772C29.7732 39.1825 29.5641 39.3879 29.4595 39.5951C29.2504 39.6977 29.3549 39.6977 29.4595 39.5951C29.8777 39.3879 29.9842 38.7719 30.1933 38.4639C30.6116 37.9487 31.5487 37.6408 32.3929 37.5381C33.6496 37.4354 34.0678 38.5666 35.3244 38.3613C35.2199 36.8176 35.3244 35.0686 35.9537 33.8348C35.6187 35.3205 35.548 36.8519 35.7446 38.3613C35.9537 38.3613 36.0583 38.2567 36.1628 38.2567C35.9537 36.7149 36.0583 34.8633 36.2674 33.4241C36.4896 33.1938 36.7355 32.9868 37.0012 32.8063C36.8079 33.6851 36.7726 34.5903 36.8967 35.4811C36.8967 35.8918 37.1058 36.3043 37.0012 36.7149C37.0012 36.9202 36.7921 37.1256 36.7921 37.2282C36.7179 37.5305 36.5741 37.8121 36.372 38.0514C36.4765 37.9487 36.4765 37.8461 36.583 37.8461C37.0012 37.0229 37.2104 36.3043 37.8396 35.7891C37.9588 35.6623 38.1005 35.5579 38.2579 35.4811C38.9917 35.0686 40.1438 34.9659 41.0868 35.1731C40.9822 34.1447 40.7711 32.4983 41.1913 31.5725H41.2959C42.1343 32.293 41.6095 33.9374 41.8187 35.1731C41.9007 35.1682 41.9781 35.134 42.0362 35.0769C42.0944 35.0198 42.1292 34.9438 42.1343 34.8633C42.2388 33.7321 42.0278 32.3919 42.1343 31.1619C42.2388 31.1619 42.1343 31.0592 42.2388 31.0592C42.5525 31.985 42.3434 33.4241 42.4479 34.4526C42.4758 34.0444 42.6208 33.6522 42.8662 33.3215C43.0753 33.0135 42.8662 32.1903 44.7521 31.0592C44.6475 29.9281 44.4384 28.3844 44.7521 27.5631C44.8567 27.5631 44.8566 27.4586 44.8566 27.5631C45.5905 28.1791 45.3814 29.6182 45.4859 30.7493L45.7996 30.4414C45.7996 29.3102 45.5905 28.1791 45.6951 27.0479C45.7996 27.0479 45.695 26.9453 45.7996 26.9453C46.1133 27.7684 46.0087 28.8996 46.1133 29.9281C46.2178 29.1049 45.7996 28.0764 46.7426 26.8426C46.638 26.0194 46.5335 24.7856 46.8471 24.0651H46.9517C47.581 24.4777 47.4745 25.2989 47.3699 26.1221C47.4745 26.0194 47.581 26.0194 47.6855 25.9168V24.8883C47.2654 24.1678 47.2654 23.3465 47.3699 20.9797C47.4745 19.1299 47.8946 16.765 47.8946 16.5577C47.8778 16.2462 47.9131 15.9341 47.9992 15.6338C48.1038 7.09795 37.9442 0.103868 25.1649 0.00120973M47.579 15.5293C47.4745 23.7571 37.3168 30.3387 24.9558 30.236C12.4921 30.1334 2.54161 23.3465 2.64617 15.1186C2.75073 6.89074 12.9084 0.309184 25.2694 0.411843C37.6286 0.411843 47.579 7.20061 47.579 15.5293Z" fill="#3CA3DC"/>
<path d="M33.3258 24.0651C31.7708 27.2289 28.1488 29.0091 24.7167 29.2065C24.1299 29.2417 23.5414 29.2417 22.9546 29.2065C19.5301 29.1078 16.8342 28.0203 15.3827 26.1414C14.7664 25.3976 14.3692 24.5105 14.2323 23.5716C10.6007 22.9776 7.38525 22.0875 5 21C7.90487 26.1414 15.4767 29.8992 24.5 29.9979C33.3201 30.0966 40.9897 26.6367 44 21.5904C41.0951 22.687 37.4655 23.568 33.3162 24.0615" fill="#3CA3DC"/>
<path d="M22.6005 28.9589C19.5851 28.7222 17.0591 27.5904 15.9127 25.9216C15.4559 25.2577 15.1591 24.4839 15.0485 23.6686C14.938 22.8532 15.017 22.0213 15.2788 21.2463C15.799 19.8059 16.8414 18.5712 18.0919 18.351C18.4313 18.2536 18.7834 18.216 19.1342 18.2399H19.3442C21.0109 18.351 22.192 19.5486 22.219 20.9953C22.2076 21.1176 22.187 21.2387 22.1573 21.3574C22.0261 21.717 21.7975 22.0266 21.5005 22.2466C21.2036 22.4666 20.852 22.5869 20.4907 22.5921C20.4907 22.5921 20.2806 22.5921 20.2806 22.7032C20.2806 23.0366 20.6987 23.9276 21.323 24.3721C21.9026 24.8083 22.5946 25.042 23.3037 25.0408H23.5118C24.7623 25.0408 26.1187 24.3721 26.847 23.372C27.1657 22.9797 27.3969 22.5154 27.5234 22.0139C27.6499 21.5124 27.6683 20.9869 27.5772 20.4767C27.2651 18.6967 25.3885 17.5835 23.5118 16.4702C20.8028 14.7993 17.3635 12.7971 18.4059 8.12181C19.0302 5.22651 22.4694 3.11112 25.2844 3H26.5349C29.2458 3.11112 31.4346 4.22438 32.1629 5.78417C32.8142 7.00649 32.5039 8.67946 32.0126 9.63221C31.4018 10.6611 30.6947 11.015 29.7391 11.015C29.7391 11.015 28.7352 11.1118 28.1668 10.408C27.5676 9.6672 27.7911 8.26379 27.9934 7.89751C27.8236 7.65572 27.6034 7.45953 27.3502 7.32451C27.097 7.18948 26.8179 7.11935 26.5349 7.11967H26.4308C25.6564 7.12765 24.9127 7.44475 24.3461 8.00863C24.1551 8.19013 24.001 8.41168 23.8937 8.65949C23.7863 8.90731 23.7278 9.17607 23.7218 9.44907C23.7218 10.6734 25.3307 11.5418 26.953 12.5645C27.2478 12.7703 27.7853 13.1222 27.7853 13.1222C30.2901 14.6799 33.1012 16.462 32.9972 20.5796C32.8932 25.7014 28.6138 28.6193 24.6582 28.928C23.975 29.0123 23.2856 29.0226 22.6005 28.9589Z" fill="#3AA5DE"/>
<path d="M25.4649 1.83883C25.8887 1.81952 26.5901 1.83883 26.682 1.83883C29.827 1.9431 32.3925 3.1344 33.1745 5.07678C33.2964 5.38184 33.3771 5.70235 33.4783 5.91088C36.7246 6.43412 39.667 7.1659 42 8C38.4499 3.92795 32.0605 1.10706 24.6528 1.0028C17.1514 0.898535 10.5519 3.7175 7 7.89574C10.0437 6.73726 14.0007 5.91088 18.4641 5.49383C20.1895 3.30044 23.0288 1.9431 25.4649 1.83883Z" fill="#3CA3DC"/>
</svg>
