<svg width="39" height="28" viewBox="0 0 39 28" fill="none" xmlns="http://www.w3.org/2000/svg">
<path d="M32.044 8.41218C30.8509 5.60269 28.7924 3.27213 26.1841 1.77786C23.5758 0.283582 20.5618 -0.291938 17.6041 0.13954C14.6463 0.571017 11.9082 1.98567 9.80946 4.16661C7.71074 6.34755 6.36727 9.17439 5.98504 12.2137C4.12539 12.6705 2.49405 13.812 1.40081 15.4214C0.307575 17.0307 -0.171413 18.9959 0.0548074 20.9436C0.281028 22.8914 1.1967 24.6861 2.62794 25.9869C4.05918 27.2877 5.9063 28.0041 7.81853 28H29.2743C31.6136 27.9934 33.8727 27.1244 35.6396 25.5516C37.4064 23.9788 38.5632 21.8069 38.899 19.432C39.2348 17.0572 38.7272 14.6377 37.4688 12.6148C36.2105 10.5918 34.2851 9.1003 32.044 8.41218ZM29.2743 23.9984H7.81853C6.78391 23.9984 5.79167 23.5768 5.06008 22.8263C4.32849 22.0759 3.91749 21.0581 3.91749 19.9968C3.91749 18.9355 4.32849 17.9177 5.06008 17.1672C5.79167 16.4168 6.78391 15.9952 7.81853 15.9952C8.33584 15.9952 8.83196 15.7844 9.19776 15.4092C9.56355 15.034 9.76905 14.5251 9.76905 13.9944C9.77403 11.628 10.5966 9.34006 12.0907 7.537C13.5848 5.73394 15.6536 4.53254 17.9295 4.14623C20.2055 3.75993 22.5413 4.21373 24.5219 5.42701C26.5026 6.6403 27.9998 8.53451 28.7476 10.7731C28.862 11.1132 29.0637 11.4154 29.3315 11.6478C29.5992 11.8801 29.9231 12.0342 30.269 12.0937C31.6987 12.3643 32.9791 13.1711 33.8605 14.3571C34.742 15.543 35.1616 17.0231 35.0374 18.509C34.9132 19.9949 34.2543 21.3801 33.1889 22.3949C32.1235 23.4097 30.728 23.9813 29.2743 23.9984Z" fill="black"/>
</svg>
